<?xml version="1.0" encoding="utf-8"?>
<!-- Generator: Adobe Illustrator 19.0.0, SVG Export Plug-In . SVG Version: 6.00 Build 0)  -->
<svg version="1.1" id="Layer_1" xmlns="http://www.w3.org/2000/svg" xmlns:xlink="http://www.w3.org/1999/xlink" x="0px" y="0px"
	 viewBox="0 18 300 66" style="enable-background:new 0 18 300 66;" xml:space="preserve">
<style type="text/css">
	.st0{enable-background:new    ;}
	.st1{fill:#4E9A92;}
</style>
<g class="st0">
	<path d="M8.8,25h6.8v21H28V25h6.8v48.6H28V50.9H15.6v22.7H8.8V25z"/>
	<path d="M42.4,25h18.8v5h-12v16.1H59v4.8h-9.8v17.8h12.2v4.9h-19V25z"/>
	<path d="M66.9,25h6.8v43.7h12.4v4.9H66.9V25z"/>
	<path d="M90.7,25h6.8v43.7h12.4v4.9H90.7V25z"/>
	<path d="M116.3,70.1c-2.1-2.7-3.1-6.6-3.1-11.7V39.9c0-5,1-8.9,3.1-11.5s5.5-3.9,10.2-3.9s8.1,1.3,10.2,3.9
		c2.1,2.6,3.1,6.4,3.1,11.4v18.5c0,5-1,8.9-3.1,11.6s-5.5,4.1-10.1,4.1C121.8,74.1,118.4,72.8,116.3,70.1z M131.7,66.6
		c0.9-1.5,1.3-3.7,1.3-6.7V38.6c0-3-0.4-5.1-1.3-6.6c-0.9-1.4-2.6-2.1-5.1-2.1c-2.6,0-4.3,0.7-5.2,2.1c-0.9,1.4-1.3,3.6-1.3,6.6
		v21.3c0,3,0.4,5.2,1.3,6.7s2.6,2.2,5.2,2.2C129.1,68.8,130.8,68.1,131.7,66.6z"/>
	<path d="M165.6,30h-8.2v-5h23v5h-8v43.6h-6.8V30z"/>
	<path d="M185,25h18.8v5h-12.1v16.1h9.8v4.8h-9.8v17.8H204v4.9h-19V25z"/>
	<path d="M217.1,25h6.5L234,73.6h-6.4l-2.2-12.2h-9.9l-2.4,12.2h-6.4L217.1,25z M224.5,56.5l-4.1-21.9l-4,21.9H224.5z"/>
	<path d="M239.7,25h6.7l8.6,39.4l8.6-39.4h6.6l0.9,48.6h-5.5l-0.5-35.3l-8.2,35.3H253l-8.2-35.3l-0.5,35.3h-5.5L239.7,25z"/>
</g>
<circle id="XMLID_28_" class="st1" cx="287.5" cy="66.5" r="7.5"/>
</svg>
